<mxfile host="draw.home.robertgatti.com" agent="Mozilla/5.0 (X11; Linux x86_64; rv:131.0) Gecko/20100101 Firefox/131.0" version="24.7.17">
  <diagram name="Page-1" id="87Oc3Aj0w-VCr4FXPLcf">
    <mxGraphModel dx="1314" dy="1092" grid="1" gridSize="10" guides="1" tooltips="1" connect="1" arrows="1" fold="1" page="0" pageScale="1" pageWidth="850" pageHeight="1100" math="0" shadow="0">
      <root>
        <mxCell id="0" />
        <mxCell id="1" parent="0" />
        <mxCell id="8-PocwH5O_5WDN7HJQKM-22" value="Dispatcher" style="rounded=0;whiteSpace=wrap;html=1;verticalAlign=top;fontStyle=1" vertex="1" parent="1">
          <mxGeometry x="520" y="500" width="180" height="375" as="geometry" />
        </mxCell>
        <mxCell id="8-PocwH5O_5WDN7HJQKM-27" value="Thread Pool" style="rounded=0;whiteSpace=wrap;html=1;verticalAlign=top;fontStyle=1" vertex="1" parent="1">
          <mxGeometry x="800" y="500" width="190" height="375" as="geometry" />
        </mxCell>
        <mxCell id="8-PocwH5O_5WDN7HJQKM-2" value="Coroutine" style="rounded=1;whiteSpace=wrap;html=1;fillColor=#d5e8d4;strokeColor=#82b366;" vertex="1" parent="1">
          <mxGeometry x="60" y="210" width="120" height="60" as="geometry" />
        </mxCell>
        <mxCell id="8-PocwH5O_5WDN7HJQKM-3" value="Coroutine" style="rounded=1;whiteSpace=wrap;html=1;fillColor=#d5e8d4;strokeColor=#82b366;" vertex="1" parent="1">
          <mxGeometry x="60" y="290" width="120" height="60" as="geometry" />
        </mxCell>
        <mxCell id="8-PocwH5O_5WDN7HJQKM-4" value="Coroutine" style="rounded=1;whiteSpace=wrap;html=1;fillColor=#d5e8d4;strokeColor=#82b366;" vertex="1" parent="1">
          <mxGeometry x="60" y="370" width="120" height="60" as="geometry" />
        </mxCell>
        <mxCell id="8-PocwH5O_5WDN7HJQKM-6" style="edgeStyle=orthogonalEdgeStyle;rounded=0;orthogonalLoop=1;jettySize=auto;html=1;exitX=0.5;exitY=0;exitDx=0;exitDy=0;" edge="1" parent="1" source="8-PocwH5O_5WDN7HJQKM-5">
          <mxGeometry relative="1" as="geometry">
            <mxPoint x="120" y="450" as="targetPoint" />
          </mxGeometry>
        </mxCell>
        <mxCell id="8-PocwH5O_5WDN7HJQKM-5" value="&lt;div&gt;suspendable&lt;/div&gt;&lt;div&gt;computation&lt;br&gt;&lt;/div&gt;" style="text;html=1;align=center;verticalAlign=middle;whiteSpace=wrap;rounded=0;fontStyle=2" vertex="1" parent="1">
          <mxGeometry x="90" y="500" width="60" height="30" as="geometry" />
        </mxCell>
        <mxCell id="8-PocwH5O_5WDN7HJQKM-7" value="&lt;div&gt;&lt;b&gt;Coroutine Builders&lt;br&gt;&lt;/b&gt;&lt;/div&gt;&lt;div&gt;runBlocking&lt;/div&gt;&lt;div&gt;launch&lt;/div&gt;&lt;div&gt;async&lt;b&gt;&lt;br&gt;&lt;/b&gt;&lt;/div&gt;" style="text;html=1;whiteSpace=wrap;overflow=hidden;rounded=0;" vertex="1" parent="1">
          <mxGeometry x="200" y="130" width="120" height="67" as="geometry" />
        </mxCell>
        <mxCell id="8-PocwH5O_5WDN7HJQKM-10" style="edgeStyle=orthogonalEdgeStyle;rounded=0;orthogonalLoop=1;jettySize=auto;html=1;exitX=0;exitY=0.5;exitDx=0;exitDy=0;" edge="1" parent="1" source="8-PocwH5O_5WDN7HJQKM-8" target="8-PocwH5O_5WDN7HJQKM-2">
          <mxGeometry relative="1" as="geometry" />
        </mxCell>
        <mxCell id="8-PocwH5O_5WDN7HJQKM-11" style="edgeStyle=orthogonalEdgeStyle;rounded=0;orthogonalLoop=1;jettySize=auto;html=1;exitX=0;exitY=0.5;exitDx=0;exitDy=0;" edge="1" parent="1" source="8-PocwH5O_5WDN7HJQKM-8" target="8-PocwH5O_5WDN7HJQKM-3">
          <mxGeometry relative="1" as="geometry" />
        </mxCell>
        <mxCell id="8-PocwH5O_5WDN7HJQKM-12" style="edgeStyle=orthogonalEdgeStyle;rounded=0;orthogonalLoop=1;jettySize=auto;html=1;exitX=0;exitY=0.5;exitDx=0;exitDy=0;" edge="1" parent="1" source="8-PocwH5O_5WDN7HJQKM-8" target="8-PocwH5O_5WDN7HJQKM-4">
          <mxGeometry relative="1" as="geometry" />
        </mxCell>
        <mxCell id="8-PocwH5O_5WDN7HJQKM-8" value="CoroutineScope" style="rounded=1;whiteSpace=wrap;html=1;verticalAlign=top;fillColor=#dae8fc;strokeColor=#6c8ebf;" vertex="1" parent="1">
          <mxGeometry x="320" y="255" width="190" height="130" as="geometry" />
        </mxCell>
        <mxCell id="8-PocwH5O_5WDN7HJQKM-21" style="edgeStyle=orthogonalEdgeStyle;rounded=0;orthogonalLoop=1;jettySize=auto;html=1;exitX=1;exitY=0.5;exitDx=0;exitDy=0;entryX=0;entryY=0.5;entryDx=0;entryDy=0;dashed=1;" edge="1" parent="1" source="8-PocwH5O_5WDN7HJQKM-9" target="8-PocwH5O_5WDN7HJQKM-15">
          <mxGeometry relative="1" as="geometry" />
        </mxCell>
        <mxCell id="8-PocwH5O_5WDN7HJQKM-44" style="edgeStyle=orthogonalEdgeStyle;rounded=0;orthogonalLoop=1;jettySize=auto;html=1;exitX=0.5;exitY=1;exitDx=0;exitDy=0;entryX=0;entryY=0.5;entryDx=0;entryDy=0;" edge="1" parent="1" source="8-PocwH5O_5WDN7HJQKM-9" target="8-PocwH5O_5WDN7HJQKM-25">
          <mxGeometry relative="1" as="geometry" />
        </mxCell>
        <mxCell id="8-PocwH5O_5WDN7HJQKM-9" value="CoroutineContext" style="rounded=1;whiteSpace=wrap;html=1;fillColor=#fff2cc;strokeColor=#d6b656;" vertex="1" parent="1">
          <mxGeometry x="355" y="305" width="120" height="60" as="geometry" />
        </mxCell>
        <mxCell id="8-PocwH5O_5WDN7HJQKM-13" value="&lt;div&gt;&lt;i&gt;&lt;b&gt;GlobalScope&lt;/b&gt;&lt;/i&gt;&lt;/div&gt;&lt;div&gt;&lt;i&gt;Has no Job reference&lt;br&gt;&lt;/i&gt;&lt;/div&gt;" style="text;html=1;align=left;verticalAlign=middle;whiteSpace=wrap;rounded=0;" vertex="1" parent="1">
          <mxGeometry x="540" y="230" width="140" height="30" as="geometry" />
        </mxCell>
        <mxCell id="8-PocwH5O_5WDN7HJQKM-17" style="edgeStyle=orthogonalEdgeStyle;rounded=0;orthogonalLoop=1;jettySize=auto;html=1;exitX=0.25;exitY=1;exitDx=0;exitDy=0;" edge="1" parent="1" source="8-PocwH5O_5WDN7HJQKM-14" target="8-PocwH5O_5WDN7HJQKM-15">
          <mxGeometry relative="1" as="geometry" />
        </mxCell>
        <mxCell id="8-PocwH5O_5WDN7HJQKM-18" style="edgeStyle=orthogonalEdgeStyle;rounded=0;orthogonalLoop=1;jettySize=auto;html=1;exitX=0.75;exitY=1;exitDx=0;exitDy=0;" edge="1" parent="1" source="8-PocwH5O_5WDN7HJQKM-14" target="8-PocwH5O_5WDN7HJQKM-16">
          <mxGeometry relative="1" as="geometry" />
        </mxCell>
        <mxCell id="8-PocwH5O_5WDN7HJQKM-14" value="Job" style="rounded=1;whiteSpace=wrap;html=1;fillColor=#f8cecc;strokeColor=#b85450;" vertex="1" parent="1">
          <mxGeometry x="790" y="150" width="120" height="60" as="geometry" />
        </mxCell>
        <mxCell id="8-PocwH5O_5WDN7HJQKM-15" value="Job" style="rounded=1;whiteSpace=wrap;html=1;fillColor=#f8cecc;strokeColor=#b85450;" vertex="1" parent="1">
          <mxGeometry x="690" y="270" width="120" height="60" as="geometry" />
        </mxCell>
        <mxCell id="8-PocwH5O_5WDN7HJQKM-20" style="edgeStyle=orthogonalEdgeStyle;rounded=0;orthogonalLoop=1;jettySize=auto;html=1;exitX=0.5;exitY=1;exitDx=0;exitDy=0;entryX=0.5;entryY=0;entryDx=0;entryDy=0;" edge="1" parent="1" source="8-PocwH5O_5WDN7HJQKM-16" target="8-PocwH5O_5WDN7HJQKM-19">
          <mxGeometry relative="1" as="geometry" />
        </mxCell>
        <mxCell id="8-PocwH5O_5WDN7HJQKM-16" value="Job" style="rounded=1;whiteSpace=wrap;html=1;fillColor=#f8cecc;strokeColor=#b85450;" vertex="1" parent="1">
          <mxGeometry x="880" y="270" width="120" height="60" as="geometry" />
        </mxCell>
        <mxCell id="8-PocwH5O_5WDN7HJQKM-19" value="Job" style="rounded=1;whiteSpace=wrap;html=1;fillColor=#f8cecc;strokeColor=#b85450;" vertex="1" parent="1">
          <mxGeometry x="880" y="380" width="120" height="60" as="geometry" />
        </mxCell>
        <mxCell id="8-PocwH5O_5WDN7HJQKM-32" style="edgeStyle=orthogonalEdgeStyle;rounded=0;orthogonalLoop=1;jettySize=auto;html=1;exitX=1;exitY=0.5;exitDx=0;exitDy=0;entryX=0;entryY=0.5;entryDx=0;entryDy=0;" edge="1" parent="1" source="8-PocwH5O_5WDN7HJQKM-23" target="8-PocwH5O_5WDN7HJQKM-28">
          <mxGeometry relative="1" as="geometry" />
        </mxCell>
        <mxCell id="8-PocwH5O_5WDN7HJQKM-23" value="Main" style="rounded=1;whiteSpace=wrap;html=1;fillColor=#ffff88;strokeColor=#36393d;" vertex="1" parent="1">
          <mxGeometry x="550" y="550" width="120" height="60" as="geometry" />
        </mxCell>
        <mxCell id="8-PocwH5O_5WDN7HJQKM-37" style="edgeStyle=orthogonalEdgeStyle;rounded=0;orthogonalLoop=1;jettySize=auto;html=1;exitX=1;exitY=0.5;exitDx=0;exitDy=0;entryX=0;entryY=0.5;entryDx=0;entryDy=0;" edge="1" parent="1" source="8-PocwH5O_5WDN7HJQKM-24" target="8-PocwH5O_5WDN7HJQKM-29">
          <mxGeometry relative="1" as="geometry" />
        </mxCell>
        <mxCell id="8-PocwH5O_5WDN7HJQKM-24" value="Default" style="rounded=1;whiteSpace=wrap;html=1;fillColor=#ffff88;strokeColor=#36393d;" vertex="1" parent="1">
          <mxGeometry x="550" y="630" width="120" height="60" as="geometry" />
        </mxCell>
        <mxCell id="8-PocwH5O_5WDN7HJQKM-38" value="on demand" style="edgeStyle=orthogonalEdgeStyle;rounded=0;orthogonalLoop=1;jettySize=auto;html=1;exitX=1;exitY=0.5;exitDx=0;exitDy=0;entryX=0;entryY=0.5;entryDx=0;entryDy=0;" edge="1" parent="1" source="8-PocwH5O_5WDN7HJQKM-25" target="8-PocwH5O_5WDN7HJQKM-31">
          <mxGeometry relative="1" as="geometry" />
        </mxCell>
        <mxCell id="8-PocwH5O_5WDN7HJQKM-25" value="IO" style="rounded=1;whiteSpace=wrap;html=1;fillColor=#ffff88;strokeColor=#36393d;" vertex="1" parent="1">
          <mxGeometry x="550" y="710" width="120" height="60" as="geometry" />
        </mxCell>
        <mxCell id="8-PocwH5O_5WDN7HJQKM-40" style="edgeStyle=orthogonalEdgeStyle;rounded=0;orthogonalLoop=1;jettySize=auto;html=1;exitX=0.5;exitY=1;exitDx=0;exitDy=0;entryX=1;entryY=0.5;entryDx=0;entryDy=0;" edge="1" parent="1" source="8-PocwH5O_5WDN7HJQKM-26" target="8-PocwH5O_5WDN7HJQKM-28">
          <mxGeometry relative="1" as="geometry">
            <Array as="points">
              <mxPoint x="610" y="910" />
              <mxPoint x="1030" y="910" />
              <mxPoint x="1030" y="580" />
            </Array>
          </mxGeometry>
        </mxCell>
        <mxCell id="8-PocwH5O_5WDN7HJQKM-41" style="edgeStyle=orthogonalEdgeStyle;rounded=0;orthogonalLoop=1;jettySize=auto;html=1;exitX=0.5;exitY=1;exitDx=0;exitDy=0;entryX=1;entryY=0.5;entryDx=0;entryDy=0;" edge="1" parent="1" source="8-PocwH5O_5WDN7HJQKM-26" target="8-PocwH5O_5WDN7HJQKM-34">
          <mxGeometry relative="1" as="geometry">
            <Array as="points">
              <mxPoint x="610" y="910" />
              <mxPoint x="1030" y="910" />
              <mxPoint x="1030" y="680" />
            </Array>
          </mxGeometry>
        </mxCell>
        <mxCell id="8-PocwH5O_5WDN7HJQKM-42" style="edgeStyle=orthogonalEdgeStyle;rounded=0;orthogonalLoop=1;jettySize=auto;html=1;exitX=0.5;exitY=1;exitDx=0;exitDy=0;entryX=1;entryY=0.5;entryDx=0;entryDy=0;" edge="1" parent="1" source="8-PocwH5O_5WDN7HJQKM-26" target="8-PocwH5O_5WDN7HJQKM-36">
          <mxGeometry relative="1" as="geometry">
            <Array as="points">
              <mxPoint x="610" y="910" />
              <mxPoint x="1030" y="910" />
              <mxPoint x="1030" y="810" />
            </Array>
          </mxGeometry>
        </mxCell>
        <mxCell id="8-PocwH5O_5WDN7HJQKM-26" value="Unconfined" style="rounded=1;whiteSpace=wrap;html=1;fillColor=#ffff88;strokeColor=#36393d;" vertex="1" parent="1">
          <mxGeometry x="550" y="790" width="120" height="60" as="geometry" />
        </mxCell>
        <mxCell id="8-PocwH5O_5WDN7HJQKM-28" value="Main / UI" style="rounded=1;whiteSpace=wrap;html=1;fillColor=#fad7ac;strokeColor=#b46504;" vertex="1" parent="1">
          <mxGeometry x="830" y="550" width="120" height="60" as="geometry" />
        </mxCell>
        <mxCell id="8-PocwH5O_5WDN7HJQKM-29" value="Thread" style="rounded=1;whiteSpace=wrap;html=1;fillColor=#bac8d3;strokeColor=#23445d;" vertex="1" parent="1">
          <mxGeometry x="830" y="630" width="120" height="60" as="geometry" />
        </mxCell>
        <mxCell id="8-PocwH5O_5WDN7HJQKM-31" value="Thread" style="rounded=1;whiteSpace=wrap;html=1;dashed=1;fillColor=#b1ddf0;strokeColor=#10739e;opacity=50;" vertex="1" parent="1">
          <mxGeometry x="835" y="760" width="120" height="60" as="geometry" />
        </mxCell>
        <mxCell id="8-PocwH5O_5WDN7HJQKM-33" value="Thread" style="rounded=1;whiteSpace=wrap;html=1;fillColor=#bac8d3;strokeColor=#23445d;" vertex="1" parent="1">
          <mxGeometry x="840" y="640" width="120" height="60" as="geometry" />
        </mxCell>
        <mxCell id="8-PocwH5O_5WDN7HJQKM-34" value="Thread" style="rounded=1;whiteSpace=wrap;html=1;fillColor=#bac8d3;strokeColor=#23445d;" vertex="1" parent="1">
          <mxGeometry x="850" y="650" width="120" height="60" as="geometry" />
        </mxCell>
        <mxCell id="8-PocwH5O_5WDN7HJQKM-35" value="Thread" style="rounded=1;whiteSpace=wrap;html=1;dashed=1;fillColor=#b1ddf0;strokeColor=#10739e;opacity=50;" vertex="1" parent="1">
          <mxGeometry x="845" y="770" width="120" height="60" as="geometry" />
        </mxCell>
        <mxCell id="8-PocwH5O_5WDN7HJQKM-36" value="Thread" style="rounded=1;whiteSpace=wrap;html=1;dashed=1;fillColor=#b1ddf0;strokeColor=#10739e;opacity=50;" vertex="1" parent="1">
          <mxGeometry x="855" y="780" width="120" height="60" as="geometry" />
        </mxCell>
      </root>
    </mxGraphModel>
  </diagram>
</mxfile>
